<svg width="30" height="30" viewBox="0 0 30 30" fill="none" xmlns="http://www.w3.org/2000/svg">
<path d="M10.0783 9.20119V7.27322C10.0783 4.52007 12.228 2.27399 14.8982 2.27399C17.5684 2.27399 19.7181 4.52007 19.7181 7.27322V9.20119H23.0497C23.2023 9.2013 23.3492 9.25924 23.4608 9.36334C23.5724 9.46744 23.6405 9.60998 23.6512 9.76223L24.7964 26.632C24.8065 26.7913 24.7532 26.9482 24.6481 27.0685C24.543 27.1887 24.3946 27.2626 24.2354 27.274H5.60153C5.44199 27.274 5.28899 27.2106 5.17618 27.0978C5.06337 26.985 5 26.832 5 26.6725V26.632L6.14521 9.76223C6.15548 9.60963 6.22329 9.46663 6.33496 9.36212C6.44662 9.25761 6.5938 9.1994 6.74674 9.19926L10.0783 9.20119ZM11.8867 9.20119H17.9116V7.27322C17.9116 5.50141 16.562 4.0805 14.8982 4.0805C13.2344 4.0805 11.8867 5.50141 11.8867 7.27322V9.20119ZM6.89134 25.4694H22.9051L21.9257 11.0096H7.87268L6.89134 25.4694Z" fill="black"/>
</svg>
